Coordinates
version=1
nRows=16
nColumns=36
inDegrees=yes

Units are S.I. units (second, meters, Newtons, ...)
If the header above contains a line with 'inDegrees', this indicates whether rotational values are in degrees (yes) or radians (no).

endheader
time	pelvis_tilt	pelvis_list	pelvis_rotation	pelvis_tx	pelvis_ty	pelvis_tz	hip_flexion_r	hip_adduction_r	hip_rotation_r	knee_angle_r	knee_angle_r_beta	ankle_angle_r	subtalar_angle_r	mtp_angle_r	hip_flexion_l	hip_adduction_l	hip_rotation_l	knee_angle_l	knee_angle_l_beta	ankle_angle_l	subtalar_angle_l	mtp_angle_l	lumbar_extension	lumbar_bending	lumbar_rotation	arm_flex_r	arm_add_r	arm_rot_r	elbow_flex_r	pro_sup_r	arm_flex_l	arm_add_l	arm_rot_l	elbow_flex_l	pro_sup_l
      0.00000000	     -2.23542919	     -2.33917363	      1.53667470	     -0.99529186	      1.36512113	     -0.06559352	     -3.64726235	      3.40030950	      1.50047457	      1.21006860	      0.02111968	      0.65833279	    -12.98602359	     -6.09579262	     -3.34743278	     -3.97711413	      3.84977492	      0.43491622	      0.00759072	      8.34224703	     -2.05242703	     -6.09579262	      0.88166114	     -0.28570846	     -4.92611189	    115.96023876	    -31.10643527	     24.68027835	    107.31033528	     82.83895979	     -5.53999745	     -6.29424023	     10.57270642	     44.29705501	     78.36618902
      0.01666670	     -3.65949223	     -2.56346960	      1.31581625	     -0.99465421	      1.36432944	     -0.06574802	     -1.90187444	      3.56174226	      1.18101432	      1.71897636	      0.03000180	      3.15846710	    -10.23572595	     -6.57911688	     -1.55781232	     -3.76599867	      5.89036571	      0.52375645	      0.00914127	      7.15862893	     -2.94884346	     -6.57911688	      3.74602302	      0.43329721	     -3.63280604	    117.16722282	    -29.39452730	     21.59230698	    101.78494707	     84.12722011	     -5.35732258	     -5.37121798	      6.18844052	     42.05780913	     73.09204397
      0.03333330	     -4.55848279	     -2.00451622	      1.23717651	     -0.99420539	      1.35749020	     -0.06493724	     -1.30393852	      2.91719304	      0.26498592	      1.08710395	      0.01897354	      3.77445042	     -9.28379630	     -6.79171740	     -0.56756360	     -3.06639601	      6.16192163	      0.60561058	      0.01056990	      6.87866327	     -3.30444072	     -6.79171740	      4.95108381	     -0.20219710	     -0.84156155	    122.23603266	    -29.67714343	     23.20804234	     95.53980793	     83.06388116	     -3.78620376	     -6.00376823	      8.76226635	     41.34604921	     71.54413328
      0.05000000	     -4.88720701	     -1.58718474	      1.19025124	     -0.99458561	      1.36044583	     -0.06423230	     -0.94980608	      2.42404695	     -0.28210776	      1.05647830	      0.01843902	      4.10533046	     -8.40729180	     -6.85176830	     -0.43217888	     -2.60611876	      6.64604399	      0.46688156	      0.00814862	      6.64799774	     -3.89167565	     -6.85176830	      5.26569366	     -0.76245453	      1.42611454	    130.16450240	    -29.48120173	     28.33729931	     84.15937398	     84.34372442	     -2.27693439	     -6.69031455	     11.64206703	     41.03641218	     71.82874580
      0.06666670	     -5.18514617	     -1.37848281	      1.35639711	     -0.99462594	      1.35956204	     -0.06394020	     -0.78880795	      2.22116475	     -0.62552029	      0.80058862	      0.01397291	      4.25196062	     -8.11158168	     -7.06249862	     -0.16024087	     -2.37134034	      7.18054222	      0.39699957	      0.00692895	      6.55614920	     -4.30940503	     -7.06249862	      5.67738174	     -0.91609783	      3.55033346	    137.96512564	    -28.17812436	     35.55653245	     71.37049556	     84.36437712	     -0.44490273	     -7.22574515	     16.08337796	     39.44115197	     71.44840635
      0.08333330	     -5.43946978	     -1.18726909	      1.37567254	     -0.99490378	      1.35892400	     -0.06402899	     -0.58711592	      2.06374433	     -0.78604518	      0.67500371	      0.01178104	      4.49664663	     -7.92511603	     -7.19232900	      0.09677226	     -2.16256074	      7.57003530	      0.36649142	      0.00639648	      6.54382673	     -4.81346225	     -7.19232900	      5.95027877	     -1.23478941	      5.54377111	    143.66921068	    -26.66969360	     41.06801208	     59.86699803	     84.55043108	      1.24574485	     -7.59794859	     20.03153915	     38.33223637	     71.54441191
      0.10000000	     -5.60064928	     -1.15330426	      1.57647605	     -0.99460895	      1.35854749	     -0.06413398	     -0.43860951	      2.00788947	     -0.90417895	      0.58705572	      0.01024606	      4.51528957	     -8.05421328	     -7.33584665	      0.31406181	     -2.11621900	      8.05788398	      0.33612642	      0.00586651	      6.57726514	     -4.97222238	     -7.33584665	      6.23613503	     -1.42238426	      6.62700217	    147.91446017	    -24.12504098	     46.77008208	     47.96758956	     83.48517497	      2.64156541	     -7.86739683	     23.59174097	     37.15524695	     71.02642981
      0.11666670	     -5.82150609	     -1.14518434	      1.83467361	     -1.00108112	      1.35823541	     -0.06875363	     -0.09037522	      1.92055009	     -1.28299537	      0.56168824	      0.00980331	      4.41120420	     -8.14933343	     -7.35647594	      0.74847518	     -1.98579829	      8.61689752	      0.32373434	      0.00565023	      6.59319843	     -5.37688469	     -7.35647594	      6.25217842	     -1.65167207	      7.28047418	    152.29146301	    -21.79485556	     54.32063319	     37.18083619	     83.64259851	      4.00359319	     -7.65852832	     26.01191514	     36.04687181	     71.61863831
      0.13333330	     -5.90747174	     -1.12740655	      2.15867027	     -0.99418052	      1.35752020	     -0.06431655	     -0.04688034	      1.91499846	     -1.39233959	      0.50824232	      0.00887050	      4.25401007	     -8.20667200	     -7.36206785	      0.87687104	     -1.99103623	      9.14016437	      0.32628609	      0.00569477	      6.36420156	     -5.56756042	     -7.36206785	      6.43357650	     -1.96364443	      6.96410936	    153.92019540	    -19.16290479	     57.96633064	     29.58710507	     83.28456458	      4.11546058	     -7.89698190	     26.89404637	     35.09998597	     71.72709730
      0.15000000	     -5.84658805	     -1.23287257	      2.60177599	     -0.99417882	      1.35348759	     -0.06510396	     -0.17070627	      2.05971880	     -1.68153384	      0.46264345	      0.00807465	      4.18352746	     -8.19822540	     -7.42895794	      0.86146716	     -2.12957903	      9.63167235	      0.33070529	      0.00577190	      6.46266585	     -5.58557751	     -7.42895794	      6.16095566	     -2.16361757	      8.58828671	    159.40937307	    -18.23631045	     82.44373566	     22.94813711	     62.15718755	      5.66075568	     -8.04983539	     31.01283554	     34.28746350	     68.91097001
      0.16666670	     -5.87927444	     -1.32708529	      3.00942130	     -0.99395810	      1.35392290	     -0.06538720	     -0.17571175	      2.16237556	     -1.87341399	      0.41432325	      0.00723130	      4.09418593	     -8.16439184	     -7.44586419	      0.98180575	     -2.24811595	     10.03026425	      0.33472004	      0.00584197	      6.36994883	     -5.66869250	     -7.44586419	      6.31400085	     -2.30743227	      8.36712336	    160.18741139	    -17.35334964	     88.27284541	     20.77396201	     61.92110685	      5.08084006	     -8.18666814	     30.09355535	     34.51764875	     68.47944060
      0.18333330	     -5.86222995	     -1.31647019	      3.25142671	     -0.99391985	      1.36192699	     -0.06531117	     -0.24570720	      2.15449625	     -2.19417097	      0.36582368	      0.00638483	      4.00135286	     -7.95957899	     -7.45205380	      0.99887848	     -2.29712569	     10.19405945	      0.36435525	      0.00635920	      6.17409891	     -5.53651953	     -7.45205380	      6.48018073	     -2.60392680	      7.92580355	    159.75618922	    -17.89908014	     88.57983225	     21.69402911	     61.71968594	      4.45696381	     -8.53426026	     29.52443917	     34.15993033	     67.98313907
      0.20000000	     -5.71337303	     -1.34719697	      3.61592287	     -0.99387386	      1.36155335	     -0.06557456	     -0.43400283	      2.19034031	     -2.42728869	      0.34900433	      0.00609127	      3.74200054	     -8.14621857	     -7.45712703	      0.88696179	     -2.41938682	     10.42637947	      0.37896822	      0.00661424	      5.98610254	     -5.64225298	     -7.45712703	      6.34298970	     -2.71432761	      7.49798220	    159.61324422	    -18.02825304	     88.29951949	     22.44079579	     61.47329741	      4.08796012	     -8.83638752	     28.91872985	     33.76833264	     67.26586507
      0.21666670	     -5.65603673	     -1.39787796	      4.11420907	     -0.98758756	      1.35704851	     -0.06212522	     -0.65535658	      2.34301684	     -2.97645211	      0.32974536	      0.00575514	      3.72931780	     -7.98709408	     -7.46718769	      0.85417495	     -2.59736854	     10.98992265	      0.42055675	      0.00734010	      5.82889628	     -6.02295429	     -7.46718769	      6.43297061	     -2.81173677	      6.85234177	    159.56819007	    -17.07541039	     89.73026774	     21.35512343	     60.97303398	      3.42581281	     -9.23819024	     28.24415666	     33.37655157	     65.32232533
      0.23333330	     -5.49227573	     -1.45145867	      4.46638172	     -0.98080246	      1.36403133	     -0.06760981	     -1.13634433	      2.40302249	     -3.43149924	      0.31842073	      0.00555749	      3.66365205	     -7.61863748	     -7.47336366	      0.48813080	     -2.68021147	     11.12803576	      0.43638991	      0.00761644	      5.92365109	     -5.89538512	     -7.47336366	      6.71148092	     -2.85264763	      5.90852155	    158.77112798	    -17.19529054	     89.83409611	     22.33633840	     60.70140678	      2.48539153	     -9.38823328	     27.69570160	     32.63752846	     64.21809180
      0.25000000	     -5.28157694	     -1.53150305	      4.74532274	     -0.98146750	      1.35952652	     -0.06816473	     -1.58156489	      2.49494142	     -3.78529478	      0.30474852	      0.00531887	      3.71658247	     -7.54913152	     -7.47721840	      0.06036775	     -2.75974109	     11.17802444	      0.42985858	      0.00750245	      6.19361144	     -5.94582126	     -7.47721840	      6.72775142	     -2.86795390	      5.33704795	    158.53369536	    -17.70027036	     89.65090019	     23.79503392	     60.63574175	      1.74150480	     -9.34396901	     27.47232090	     32.27465076	     63.54719288
